<svg xmlns="http://www.w3.org/2000/svg" data-name="Layer 1" viewBox="0 0 80 100" x="0px" y="0px">
    <title>resubmit-autofill-reactivate</title>
    <path d="M53,40A13,13,0,1,0,40,53,13,13,0,0,0,53,40ZM31,40a9,9,0,1,1,9,9A9,9,0,0,1,31,40Z"/>
    <path d="M46.42,38.41a2,2,0,0,0-2.83-2.82L39,40.17l-2.58-2.58a2,2,0,1,0-2.83,2.82l4,4A2,2,0,0,0,39,45a2,2,0,0,0,1.42-.59Z"/>
    <path d="M74.67,60.18l-4,.57A37,37,0,0,0,20,8.88a2,2,0,0,0,2.17,3.36A33,33,0,0,1,67.33,58.5l-.61-4.31a2,2,0,1,0-4,.56l1.27,9a2,2,0,0,0,2,1.72l.28,0,8.93-1.26a2,2,0,1,0-.55-4Z"/>
    <path d="M57.85,67.76A33,33,0,0,1,12.67,21.5l.61,4.31a2,2,0,0,0,2,1.72l.29,0a2,2,0,0,0,1.7-2.26L16,16.3a2,2,0,0,0-2.26-1.7L4.78,15.86a2,2,0,1,0,.55,4l4-.57A37,37,0,0,0,60,71.12a2,2,0,0,0-2.17-3.36Z"/>
</svg>
