<?xml version="1.0" encoding="iso-8859-1"?>
<!-- Uploaded to: SVG Repo, www.svgrepo.com, Generator: SVG Repo Mixer Tools -->
<svg fill="#000000" version="1.1" id="Layer_1" xmlns="http://www.w3.org/2000/svg" xmlns:xlink="http://www.w3.org/1999/xlink" 
	 viewBox="0 0 491.52 491.52" xml:space="preserve">
<g>
	<g>
		<path d="M0,0v491.52h491.52V0H0z M471.04,471.04H20.48V102.4h450.56V471.04z M471.04,81.92H20.48V20.48h450.56V81.92z"/>
	</g>
</g>
<g>
	<g>
		<rect x="430.08" y="40.96" width="20.48" height="20.48"/>
	</g>
</g>
<g>
	<g>
		<rect x="389.12" y="40.96" width="20.48" height="20.48"/>
	</g>
</g>
<g>
	<g>
		<rect x="348.16" y="40.96" width="20.48" height="20.48"/>
	</g>
</g>
<g>
	<g>
		<polygon points="368.64,133.12 368.64,153.6 405.36,153.6 276.48,282.48 225.28,231.28 133.12,323.44 92.16,282.48 43.96,330.68 
			58.44,345.16 92.16,311.44 133.12,352.4 225.28,260.24 276.48,311.44 419.84,168.08 419.84,204.8 440.32,204.8 440.32,133.12 		
			"/>
	</g>
</g>
<g>
	<g>
		<rect x="419.84" y="266.24" width="20.48" height="174.08"/>
	</g>
</g>
<g>
	<g>
		<rect x="368.64" y="286.72" width="20.48" height="153.6"/>
	</g>
</g>
<g>
	<g>
		<rect x="317.44" y="307.2" width="20.48" height="133.12"/>
	</g>
</g>
<g>
	<g>
		<rect x="266.24" y="358.4" width="20.48" height="81.92"/>
	</g>
</g>
<g>
	<g>
		<rect x="215.04" y="317.44" width="20.48" height="122.88"/>
	</g>
</g>
<g>
	<g>
		<rect x="163.84" y="348.16" width="20.48" height="92.16"/>
	</g>
</g>
<g>
	<g>
		<rect x="112.64" y="378.88" width="20.48" height="61.44"/>
	</g>
</g>
<g>
	<g>
		<rect x="61.44" y="368.64" width="20.48" height="71.68"/>
	</g>
</g>
</svg>